<?xml version="1.0" encoding="UTF-8" standalone="no"?>
<!-- Created with Inkscape (http://www.inkscape.org/) -->

<svg
   width="286.57095"
   height="68.014709"
   viewBox="0 0 75.821894 17.995559"
   version="1.1"
   id="svg5"
   inkscape:version="1.1.1 (3bf5ae0d25, 2021-09-20)"
   sodipodi:docname="logo.svg"
   xmlns:inkscape="http://www.inkscape.org/namespaces/inkscape"
   xmlns:sodipodi="http://sodipodi.sourceforge.net/DTD/sodipodi-0.dtd"
   xmlns="http://www.w3.org/2000/svg"
   xmlns:svg="http://www.w3.org/2000/svg">
  <sodipodi:namedview
     id="namedview7"
     pagecolor="#ffffff"
     bordercolor="#666666"
     borderopacity="1.0"
     inkscape:pageshadow="2"
     inkscape:pageopacity="0.0"
     inkscape:pagecheckerboard="0"
     inkscape:document-units="mm"
     showgrid="false"
     units="px"
     width="500px"
     inkscape:zoom="2.3079966"
     inkscape:cx="266.03159"
     inkscape:cy="25.563296"
     inkscape:window-width="1827"
     inkscape:window-height="1046"
     inkscape:window-x="82"
     inkscape:window-y="-11"
     inkscape:window-maximized="1"
     inkscape:current-layer="layer1"
     showguides="true"
     inkscape:guide-bbox="true"
     fit-margin-top="0"
     fit-margin-left="0"
     fit-margin-right="0"
     fit-margin-bottom="0" />
  <defs
     id="defs2" />
  <g
     inkscape:label="Слой 1"
     inkscape:groupmode="layer"
     id="layer1"
     transform="translate(-22.223779,-8.5924726)">
    <g
       id="g9757"
       transform="translate(0.15758275,-4.2151757)"
       style="fill:#333333">
      <path
         d="m 28.476155,19.650877 v 1.244372 q -0.564308,-0.311093 -1.13585,-0.463022 -0.564308,-0.159164 -1.143086,-0.159164 -1.295014,0 -2.011251,0.824758 -0.716237,0.817523 -0.716237,2.30064 0,1.483117 0.716237,2.307874 0.716237,0.817523 2.011251,0.817523 0.578778,0 1.143086,-0.151929 0.571542,-0.159163 1.13585,-0.470256 v 1.229902 q -0.557073,0.260449 -1.157554,0.390674 -0.593247,0.130225 -1.266076,0.130225 -1.830383,0 -2.908356,-1.15032 -1.077973,-1.15032 -1.077973,-3.103693 0,-1.982313 1.085208,-3.118163 1.092442,-1.135851 2.987938,-1.135851 0.614951,0 1.200963,0.130225 0.586012,0.12299 1.13585,0.376205 z"
         style="font-weight:normal;font-size:14.8167px;line-height:1.25;font-family:serif;-inkscape-font-specification:serif;letter-spacing:0px;word-spacing:0px;fill:#333333;stroke-width:0.264583"
         id="path9491" />
      <path
         d="m 33.931131,20.273063 q -1.070738,0 -1.692923,0.839227 -0.622186,0.831993 -0.622186,2.286171 0,1.454178 0.614951,2.293405 0.622186,0.831992 1.700158,0.831992 1.063504,0 1.685689,-0.839227 0.622186,-0.839227 0.622186,-2.28617 0,-1.439709 -0.622186,-2.278936 -0.622185,-0.846462 -1.685689,-0.846462 z m 0,-1.128616 q 1.736332,0 2.727489,1.128616 0.991156,1.128616 0.991156,3.125398 0,1.989547 -0.991156,3.125397 -0.991157,1.128616 -2.727489,1.128616 -1.743566,0 -2.734723,-1.128616 -0.983921,-1.13585 -0.983921,-3.125397 0,-1.996782 0.983921,-3.125398 0.991157,-1.128616 2.734723,-1.128616 z"
         style="font-weight:normal;font-size:14.8167px;line-height:1.25;font-family:serif;-inkscape-font-specification:serif;letter-spacing:0px;word-spacing:0px;fill:#333333;stroke-width:0.264583"
         id="path9493" />
      <path
         d="m 46.591886,22.551999 v 4.890668 h -1.331188 v -4.84726 q 0,-1.15032 -0.448552,-1.721862 -0.448552,-0.571543 -1.345657,-0.571543 -1.077973,0 -1.700159,0.687298 -0.622185,0.687298 -0.622185,1.873792 v 4.579575 h -1.338423 v -8.102882 h 1.338423 v 1.25884 q 0.477491,-0.730706 1.121381,-1.092442 0.651124,-0.361736 1.497586,-0.361736 1.3963,0 2.112537,0.868166 0.716237,0.860932 0.716237,2.539386 z"
         style="font-weight:normal;font-size:14.8167px;line-height:1.25;font-family:serif;-inkscape-font-specification:serif;letter-spacing:0px;word-spacing:0px;fill:#333333;stroke-width:0.264583"
         id="path9495" />
    </g>
    <g
       id="g9763"
       transform="translate(0.53843947,-4.2151757)">
      <path
         d="m 51.286854,16.773812 v 2.415672 h 2.803092 v 1.944691 h -2.803092 v 3.608316 q 0,0.592523 0.235491,0.805224 0.23549,0.205104 0.934364,0.205104 h 1.397747 v 1.944691 h -2.332111 q -1.610448,0 -2.286532,-0.668488 -0.668488,-0.676083 -0.668488,-2.286531 v -3.608316 h -1.352169 v -1.944691 h 1.352169 v -2.415672 z"
         style="font-weight:bold;font-size:14.8167px;line-height:1.25;font-family:'DejaVu Sans';-inkscape-font-specification:'DejaVu Sans Bold';letter-spacing:0px;word-spacing:0px;stroke-width:0.277812"
         id="path9497" />
      <path
         d="m 64.246404,23.420708 v 0.774838 h -6.358231 q 0.09875,0.957152 0.691277,1.435729 0.592523,0.478577 1.656027,0.478577 0.858399,0 1.75478,-0.250683 0.903978,-0.258279 1.853535,-0.774838 v 2.096621 q -0.96475,0.364629 -1.929499,0.546944 -0.96475,0.189911 -1.929499,0.189911 -2.309322,0 -3.593122,-1.169853 -1.276205,-1.17745 -1.276205,-3.29686 0,-2.081429 1.253416,-3.274072 1.261011,-1.192643 3.463982,-1.192643 2.005463,0 3.205703,1.207836 1.207836,1.207836 1.207836,3.228493 z M 61.450909,22.51673 q 0,-0.774839 -0.455787,-1.245819 -0.448191,-0.478576 -1.17745,-0.478576 -0.790031,0 -1.283801,0.44819 -0.49377,0.440595 -0.615312,1.276205 z"
         style="font-weight:bold;font-size:14.8167px;line-height:1.25;font-family:'DejaVu Sans';-inkscape-font-specification:'DejaVu Sans Bold';letter-spacing:0px;word-spacing:0px;stroke-width:0.277812"
         id="path9499" />
      <path
         d="m 68.454839,23.344743 -3.068966,-4.155259 h 2.879055 l 1.739587,2.522022 1.762378,-2.522022 h 2.879055 l -3.068966,4.140066 3.220896,4.36796 h -2.879056 l -1.914307,-2.689144 -1.891516,2.689144 h -2.879056 z"
         style="font-weight:bold;font-size:14.8167px;line-height:1.25;font-family:'DejaVu Sans';-inkscape-font-specification:'DejaVu Sans Bold';letter-spacing:0px;word-spacing:0px;stroke-width:0.277812"
         id="path9501" />
      <path
         d="m 79.31017,16.773812 v 2.415672 h 2.80309 v 1.944691 h -2.80309 v 3.608316 q 0,0.592523 0.23549,0.805224 0.235489,0.205104 0.934363,0.205104 h 1.397747 v 1.944691 h -2.33211 q -1.610448,0 -2.286533,-0.668488 -0.668488,-0.676083 -0.668488,-2.286531 v -3.608316 h -1.352168 v -1.944691 h 1.352168 v -2.415672 z"
         style="font-weight:bold;font-size:14.8167px;line-height:1.25;font-family:'DejaVu Sans';-inkscape-font-specification:'DejaVu Sans Bold';letter-spacing:0px;word-spacing:0px;stroke-width:0.277812"
         id="path9503" />
    </g>
    <g
       id="g9752"
       style="fill:#333333"
       transform="translate(1.2159161,-4.2151757)">
      <path
         d="m 89.949543,23.058429 v 0.651125 h -6.120571 q 0.08682,1.374596 0.824758,2.098067 0.745176,0.716237 2.069129,0.716237 0.76688,0 1.483117,-0.188102 0.723472,-0.188103 1.432474,-0.564308 v 1.258841 q -0.716237,0.303858 -1.468648,0.463021 -0.75241,0.159164 -1.526525,0.159164 -1.938904,0 -3.074754,-1.128616 -1.128616,-1.128615 -1.128616,-3.05305 0,-1.989547 1.070738,-3.154337 1.077973,-1.172024 2.901121,-1.172024 1.635046,0 2.582794,1.056269 0.954983,1.049034 0.954983,2.857713 z m -1.331188,-0.390675 q -0.01447,-1.092442 -0.614951,-1.743566 -0.593247,-0.651125 -1.577168,-0.651125 -1.114147,0 -1.786975,0.62942 -0.665594,0.629421 -0.76688,1.772506 z"
         style="font-weight:normal;font-size:14.8167px;line-height:1.25;font-family:serif;-inkscape-font-specification:serif;letter-spacing:0px;word-spacing:0px;fill:#333333;stroke-width:0.264583"
         id="path9505" />
      <path
         d="m 96.829761,20.584156 q -0.224276,-0.130225 -0.491961,-0.188103 -0.26045,-0.06511 -0.578777,-0.06511 -1.128616,0 -1.736332,0.737941 -0.600482,0.730706 -0.600482,2.105303 v 4.268482 h -1.338422 v -8.102882 h 1.338422 v 1.25884 q 0.419614,-0.737941 1.092443,-1.092442 0.672828,-0.361736 1.635046,-0.361736 0.137459,0 0.303858,0.0217 0.166398,0.01447 0.36897,0.05064 z"
         style="font-weight:normal;font-size:14.8167px;line-height:1.25;font-family:serif;-inkscape-font-specification:serif;letter-spacing:0px;word-spacing:0px;fill:#333333;stroke-width:0.264583"
         id="path9507" />
    </g>
    <text
       xml:space="preserve"
       style="font-size:14.8167px;line-height:1.25;font-family:serif;-inkscape-font-specification:serif;letter-spacing:0px;word-spacing:0px;stroke-width:0.264583"
       x="11.449786"
       y="-4.6154199"
       id="text9489"><tspan
         sodipodi:role="line"
         id="tspan9487"
         style="font-style:normal;font-variant:normal;font-weight:bold;font-stretch:normal;font-size:14.8167px;font-family:'DejaVu Sans';-inkscape-font-specification:'DejaVu Sans Bold';stroke-width:0.264583"
         x="11.449786"
         y="-4.6154199"><tspan
   style="font-weight:normal"
   id="tspan9483">con</tspan>text<tspan
   style="font-weight:normal"
   id="tspan9485">er</tspan></tspan></text>
    <path
       style="fill:none;stroke:#000000;stroke-width:0.79375;stroke-linecap:butt;stroke-linejoin:miter;stroke-miterlimit:4;stroke-dasharray:none;stroke-opacity:1"
       d="M 82.826109,8.5924726 V 26.588031"
       id="path9890"
       sodipodi:nodetypes="cc" />
  </g>
</svg>
